<?xml version="1.0" standalone="no"?>
<!DOCTYPE svg PUBLIC "-//W3C//DTD SVG 20010904//EN"
 "http://www.w3.org/TR/2001/REC-SVG-20010904/DTD/svg10.dtd">
<svg version="1.0" xmlns="http://www.w3.org/2000/svg"
 width="186.000000pt" height="195.000000pt" viewBox="0 0 186.000000 195.000000"
 preserveAspectRatio="xMidYMid meet">

<g transform="translate(0.000000,195.000000) scale(0.100000,-0.100000)"
fill="#000000" stroke="none">
<path d="M827 1744 c-116 -21 -206 -71 -300 -166 -118 -119 -167 -237 -167
-402 0 -163 49 -289 155 -404 72 -77 139 -120 245 -159 64 -22 91 -27 180 -27
88 0 117 5 183 27 184 64 335 223 382 402 19 75 19 234 0 308 -25 97 -71 173
-153 257 -96 97 -182 143 -308 165 -102 18 -115 18 -217 -1z m157 -66 c25 -45
35 -57 36 -40 0 34 42 29 136 -16 103 -51 182 -128 229 -227 19 -39 38 -86 41
-103 6 -29 4 -31 -27 -34 l-34 -3 55 -28 c66 -34 99 -58 85 -63 -5 -2 -37 -20
-70 -39 -54 -31 -57 -34 -31 -35 27 0 28 -2 22 -32 -28 -140 -162 -295 -299
-346 -99 -37 -95 -37 -99 0 -3 32 -4 31 -43 -39 -22 -40 -42 -73 -45 -73 -3 0
-23 33 -45 73 -39 70 -40 71 -43 40 -2 -18 -5 -33 -8 -33 -2 0 -32 10 -66 22
-80 27 -164 84 -217 145 -46 53 -100 157 -108 208 -5 31 -3 34 22 37 24 3 20
7 -39 37 -36 18 -66 36 -66 40 0 9 105 71 122 72 7 1 2 4 -12 8 -35 10 -31 55
14 146 49 99 128 177 230 227 94 45 136 50 136 16 1 -17 11 -5 36 40 20 34 40
62 44 62 4 0 24 -28 44 -62z"/>
<path d="M620 1400 l0 -70 125 0 125 0 0 -50 0 -50 -90 0 c-89 0 -90 0 -90
-25 0 -25 1 -25 91 -25 l90 0 -3 -27 c-3 -28 -3 -28 -90 -31 -80 -3 -88 -5
-88 -22 0 -18 7 -20 90 -20 l90 0 0 -150 0 -150 70 0 70 0 0 150 0 150 90 0
c89 0 90 0 90 25 0 25 -1 25 -90 25 -89 0 -90 0 -90 25 0 25 1 25 90 25 89 0
90 0 90 25 0 25 -1 25 -90 25 l-90 0 0 50 0 50 125 0 125 0 0 70 0 70 -320 0
-320 0 0 -70z"/>
<path d="M783 473 c-26 -5 -70 -54 -79 -87 -8 -31 19 -91 49 -111 33 -21 122
-17 122 5 0 11 -9 14 -33 12 -67 -7 -115 54 -87 108 17 32 41 43 88 38 23 -2
33 1 35 13 4 24 -37 33 -95 22z"/>
<path d="M981 468 c-89 -48 -83 -173 10 -204 72 -24 139 24 139 101 0 80 -84
138 -149 103z m97 -61 c19 -40 8 -95 -23 -109 -54 -25 -106 27 -90 89 10 43
25 54 64 51 28 -2 39 -9 49 -31z"/>
<path d="M430 455 c0 -9 9 -15 25 -15 25 0 25 -1 25 -90 0 -83 1 -90 20 -90
19 0 20 7 20 90 0 89 0 90 25 90 16 0 25 6 25 15 0 12 -14 15 -70 15 -56 0
-70 -3 -70 -15z"/>
<path d="M1170 365 c0 -98 1 -105 20 -105 19 0 20 7 20 105 0 98 -1 105 -20
105 -19 0 -20 -7 -20 -105z"/>
<path d="M1260 365 c0 -98 1 -105 20 -105 17 0 19 8 22 72 l3 72 48 -72 c38
-56 54 -72 73 -72 24 0 24 0 24 105 0 105 0 105 -25 105 -23 0 -24 -3 -27 -67
l-3 -68 -44 68 c-34 51 -50 67 -68 67 -23 0 -23 -2 -23 -105z"/>
<path d="M600 335 c0 -11 11 -15 40 -15 29 0 40 4 40 15 0 11 -11 15 -40 15
-29 0 -40 -4 -40 -15z"/>
</g>
</svg>
